<svg width="135" height="39" viewBox="0 0 135 39" fill="none" xmlns="http://www.w3.org/2000/svg">
<path d="M130 39H5C2.25125 39 0 36.805 0 34.125V4.875C0 2.19497 2.25125 3.8147e-06 5 3.8147e-06H130C132.749 3.8147e-06 135 2.19497 135 4.875V34.125C135 36.805 132.749 39 130 39Z" fill="black"/>
<path d="M130 0.781221C132.315 0.781221 134.199 2.61788 134.199 4.875V34.125C134.199 36.3821 132.315 38.2188 130 38.2188H5C2.685 38.2188 0.80125 36.3821 0.80125 34.125V4.875C0.80125 2.61788 2.685 0.781221 5 0.781221H130ZM130 3.8147e-06H5C2.25125 3.8147e-06 0 2.19497 0 4.875V34.125C0 36.805 2.25125 39 5 39H130C132.749 39 135 36.805 135 34.125V4.875C135 2.19497 132.749 3.8147e-06 130 3.8147e-06Z" fill="#A6A6A6"/>
<path d="M10.4364 7.35033C10.1427 7.65014 9.97266 8.11693 9.97266 8.72143V30.2836C9.97266 30.8881 10.1427 31.3548 10.4364 31.6546L10.5089 31.7205L22.9014 19.6426V19.3575L10.5089 7.27965L10.4364 7.35033Z" fill="url(#paint0_linear_1380_985)"/>
<path d="M27.0247 23.6705L22.8984 19.6426V19.3574L27.0297 15.3294L27.1222 15.3818L32.0147 18.096C33.4109 18.8662 33.4109 20.1337 32.0147 20.9088L27.1222 23.6181L27.0247 23.6705V23.6705Z" fill="url(#paint1_linear_1380_985)"/>
<path d="M27.1262 23.6182L22.9025 19.5L10.4375 31.6546C10.9012 32.1299 11.6575 32.1872 12.5175 31.7119L27.1262 23.6182" fill="url(#paint2_linear_1380_985)"/>
<path d="M27.1262 15.3818L12.5175 7.28813C11.6575 6.81769 10.9012 6.87497 10.4375 7.35028L22.9025 19.5L27.1262 15.3818Z" fill="url(#paint3_linear_1380_985)"/>
<path d="M47.4166 9.98752C47.4166 10.8016 47.1666 11.4537 46.6741 11.94C46.1078 12.5164 45.3703 12.8065 44.4666 12.8065C43.6028 12.8065 42.8653 12.5115 42.2603 11.9302C41.6541 11.3403 41.3516 10.6164 41.3516 9.74986C41.3516 8.88333 41.6541 8.15939 42.2603 7.57439C42.8653 6.98818 43.6028 6.69324 44.4666 6.69324C44.8966 6.69324 45.3066 6.77977 45.6978 6.94064C46.0878 7.10274 46.4053 7.32211 46.6353 7.59267L46.1128 8.10699C45.7116 7.64508 45.1653 7.41718 44.4666 7.41718C43.8366 7.41718 43.2903 7.63167 42.8266 8.06433C42.3678 8.49821 42.1378 9.06005 42.1378 9.74986C42.1378 10.4397 42.3678 11.0064 42.8266 11.4403C43.2903 11.868 43.8366 12.0874 44.4666 12.0874C45.1353 12.0874 45.6978 11.868 46.1416 11.4354C46.4341 11.149 46.6003 10.7541 46.6441 10.2495H44.4666V9.54511H47.3716C47.4066 9.69746 47.4166 9.84492 47.4166 9.98752V9.98752Z" fill="white"/>
<path d="M52.0247 7.54524H49.2959V9.39774H51.7559V10.1022H49.2959V11.9547H52.0247V12.6725H48.5234V6.82739H52.0247V7.54524Z" fill="white"/>
<path d="M55.2783 12.6725H54.5058V7.54524H52.832V6.82739H56.9533V7.54524H55.2783V12.6725V12.6725Z" fill="white"/>
<path d="M59.9375 12.6725V6.82739H60.7088V12.6725H59.9375Z" fill="white"/>
<path d="M64.1259 12.6725H63.3597V7.54524H61.6797V6.82739H65.8059V7.54524H64.1259V12.6725Z" fill="white"/>
<path d="M73.608 11.9205C73.0167 12.5115 72.2842 12.8065 71.4105 12.8065C70.5317 12.8065 69.7992 12.5115 69.208 11.9205C68.618 11.3306 68.3242 10.6066 68.3242 9.74986C68.3242 8.89308 68.618 8.16914 69.208 7.57927C69.7992 6.98817 70.5317 6.69324 71.4105 6.69324C72.2792 6.69324 73.0117 6.98817 73.603 7.58414C74.198 8.17889 74.4917 8.89796 74.4917 9.74986C74.4917 10.6066 74.198 11.3306 73.608 11.9205ZM69.7792 11.4305C70.2242 11.868 70.7655 12.0874 71.4105 12.0874C72.0505 12.0874 72.5967 11.868 73.0367 11.4305C73.4805 10.993 73.7055 10.4311 73.7055 9.74986C73.7055 9.06858 73.4805 8.50674 73.0367 8.06921C72.5967 7.63168 72.0505 7.4123 71.4105 7.4123C70.7655 7.4123 70.2242 7.63168 69.7792 8.06921C69.3355 8.50674 69.1105 9.06858 69.1105 9.74986C69.1105 10.4311 69.3355 10.993 69.7792 11.4305V11.4305Z" fill="white"/>
<path d="M75.5742 12.6725V6.82739H76.5117L79.4267 11.3733H79.4605L79.4267 10.2496V6.82739H80.198V12.6725H79.393L76.3405 7.90233H76.3067L76.3405 9.03089V12.6725H75.5742V12.6725Z" fill="white"/>
<path d="M68.1341 21.2087C65.7853 21.2087 63.8666 22.9515 63.8666 25.3561C63.8666 27.7412 65.7853 29.5023 68.1341 29.5023C70.4878 29.5023 72.4066 27.7412 72.4066 25.3561C72.4066 22.9515 70.4878 21.2087 68.1341 21.2087ZM68.1341 27.8692C66.8453 27.8692 65.7366 26.832 65.7366 25.3561C65.7366 23.8607 66.8453 22.8418 68.1341 22.8418C69.4228 22.8418 70.5366 23.8607 70.5366 25.3561C70.5366 26.832 69.4228 27.8692 68.1341 27.8692V27.8692ZM58.8228 21.2087C56.4691 21.2087 54.5553 22.9515 54.5553 25.3561C54.5553 27.7412 56.4691 29.5023 58.8228 29.5023C61.1753 29.5023 63.0903 27.7412 63.0903 25.3561C63.0903 22.9515 61.1753 21.2087 58.8228 21.2087ZM58.8228 27.8692C57.5328 27.8692 56.4203 26.832 56.4203 25.3561C56.4203 23.8607 57.5328 22.8418 58.8228 22.8418C60.1116 22.8418 61.2203 23.8607 61.2203 25.3561C61.2203 26.832 60.1116 27.8692 58.8228 27.8692ZM47.7428 22.4799V24.2422H52.0591C51.9328 25.2269 51.5953 25.9509 51.0778 26.4554C50.4478 27.0648 49.4666 27.7412 47.7428 27.7412C45.0866 27.7412 43.0066 25.6511 43.0066 23.0612C43.0066 20.4714 45.0866 18.3812 47.7428 18.3812C49.1791 18.3812 50.2241 18.9284 50.9953 19.6377L52.2691 18.3958C51.1903 17.3916 49.7553 16.6201 47.7428 16.6201C44.1003 16.6201 41.0391 19.5098 41.0391 23.0612C41.0391 26.6127 44.1003 29.5023 47.7428 29.5023C49.7116 29.5023 51.1903 28.8734 52.3528 27.6937C53.5441 26.5322 53.9153 24.8991 53.9153 23.5804C53.9153 23.1709 53.8803 22.7943 53.8178 22.4799H47.7428ZM93.0503 23.8461C92.699 22.9186 91.6153 21.2087 89.4078 21.2087C87.2203 21.2087 85.399 22.8894 85.399 25.3561C85.399 27.6791 87.2015 29.5023 89.6178 29.5023C91.5715 29.5023 92.699 28.3408 93.1628 27.6644L91.7128 26.7223C91.229 27.4122 90.5703 27.8692 89.6178 27.8692C88.6715 27.8692 87.9928 27.4463 87.5578 26.6127L93.2465 24.3177L93.0503 23.8461V23.8461ZM87.2503 25.2269C87.2015 23.6279 88.524 22.8089 89.4715 22.8089C90.214 22.8089 90.844 23.1709 91.054 23.6889L87.2503 25.2269V25.2269ZM82.6265 29.25H84.4965V17.0625H82.6265V29.25ZM79.564 22.1325H79.5015C79.0815 21.6475 78.2803 21.2087 77.2653 21.2087C75.1353 21.2087 73.1878 23.032 73.1878 25.3695C73.1878 27.6937 75.1353 29.5023 77.2653 29.5023C78.2803 29.5023 79.0815 29.0599 79.5015 28.5602H79.564V29.155C79.564 30.7406 78.6953 31.5925 77.294 31.5925C76.1515 31.5925 75.4428 30.7881 75.1503 30.1117L73.524 30.7735C73.9928 31.8728 75.234 33.2256 77.294 33.2256C79.4865 33.2256 81.3365 31.9678 81.3365 28.9076V21.461H79.564V22.1325V22.1325ZM77.4253 27.8692C76.1366 27.8692 75.0578 26.8174 75.0578 25.3695C75.0578 23.9082 76.1366 22.8418 77.4253 22.8418C78.6953 22.8418 79.6966 23.9082 79.6966 25.3695C79.6966 26.8174 78.6953 27.8692 77.4253 27.8692V27.8692ZM101.805 17.0625H97.3328V29.25H99.1978V24.6322H101.805C103.877 24.6322 105.908 23.1709 105.908 20.8467C105.908 18.5238 103.872 17.0625 101.805 17.0625V17.0625ZM101.854 22.9369H99.1978V18.7578H101.854C103.247 18.7578 104.042 19.8852 104.042 20.8467C104.042 21.7901 103.247 22.9369 101.854 22.9369ZM113.383 21.1856C112.035 21.1856 110.634 21.7657 110.058 23.0515L111.713 23.7279C112.069 23.0515 112.724 22.8321 113.417 22.8321C114.384 22.8321 115.365 23.3988 115.38 24.3994V24.5274C115.043 24.3372 114.32 24.0557 113.432 24.0557C111.649 24.0557 109.833 25.0124 109.833 26.7979C109.833 28.431 111.293 29.4828 112.934 29.4828C114.189 29.4828 114.882 28.9307 115.317 28.2884H115.38V29.2305H117.182V24.5554C117.182 22.3946 115.527 21.1856 113.383 21.1856ZM113.158 27.8643C112.548 27.8643 111.698 27.5694 111.698 26.832C111.698 25.8887 112.758 25.5267 113.675 25.5267C114.497 25.5267 114.882 25.7035 115.38 25.9362C115.234 27.0648 114.238 27.8643 113.158 27.8643V27.8643ZM123.744 21.4525L121.6 26.7357H121.537L119.32 21.4525H117.309L120.639 28.8356L118.739 32.9441H120.688L125.819 21.4525H123.744V21.4525ZM106.933 29.25H108.803V17.0625H106.933V29.25Z" fill="white"/>
<defs>
<linearGradient id="paint0_linear_1380_985" x1="21.8011" y1="30.5081" x2="5.4435" y2="13.7311" gradientUnits="userSpaceOnUse">
<stop stop-color="#00A0FF"/>
<stop offset="0.0066" stop-color="#00A1FF"/>
<stop offset="0.2601" stop-color="#00BEFF"/>
<stop offset="0.5122" stop-color="#00D2FF"/>
<stop offset="0.7604" stop-color="#00DFFF"/>
<stop offset="1" stop-color="#00E3FF"/>
</linearGradient>
<linearGradient id="paint1_linear_1380_985" x1="33.8328" y1="19.4986" x2="9.63594" y2="19.4986" gradientUnits="userSpaceOnUse">
<stop stop-color="#FFE000"/>
<stop offset="0.4087" stop-color="#FFBD00"/>
<stop offset="0.7754" stop-color="#FFA500"/>
<stop offset="1" stop-color="#FF9C00"/>
</linearGradient>
<linearGradient id="paint2_linear_1380_985" x1="24.8295" y1="17.2613" x2="2.64727" y2="-5.48969" gradientUnits="userSpaceOnUse">
<stop stop-color="#FF3A44"/>
<stop offset="1" stop-color="#C31162"/>
</linearGradient>
<linearGradient id="paint3_linear_1380_985" x1="7.2998" y1="38.8282" x2="17.2052" y2="28.669" gradientUnits="userSpaceOnUse">
<stop stop-color="#32A071"/>
<stop offset="0.0685" stop-color="#2DA771"/>
<stop offset="0.4762" stop-color="#15CF74"/>
<stop offset="0.8009" stop-color="#06E775"/>
<stop offset="1" stop-color="#00F076"/>
</linearGradient>
</defs>
</svg>
